<mxfile host="app.diagrams.net" agent="Mozilla/5.0 (Windows NT 10.0; Win64; x64) AppleWebKit/537.36 (KHTML, like Gecko) Chrome/127.0.0.0 Safari/537.36" version="24.7.7">
  <diagram name="Page-1" id="PGcCbStksu5quDjQdJMw">
    <mxGraphModel grid="0" page="1" gridSize="10" guides="1" tooltips="1" connect="1" arrows="1" fold="1" pageScale="1" pageWidth="850" pageHeight="1100" background="#FFFFFF" math="0" shadow="0">
      <root>
        <mxCell id="0" />
        <mxCell id="1" parent="0" />
        <mxCell id="G-xqCxAlUEA61fizFQ8X-1" value="" style="swimlane;startSize=0;" vertex="1" parent="1">
          <mxGeometry x="198" y="70" width="438" height="675" as="geometry">
            <mxRectangle x="209" y="74" width="50" height="44" as="alternateBounds" />
          </mxGeometry>
        </mxCell>
        <mxCell id="G-xqCxAlUEA61fizFQ8X-16" value="&lt;font face=&quot;Georgia&quot;&gt;Verification&lt;/font&gt;" style="ellipse;whiteSpace=wrap;html=1;" vertex="1" parent="G-xqCxAlUEA61fizFQ8X-1">
          <mxGeometry x="35" y="50" width="136" height="43" as="geometry" />
        </mxCell>
        <mxCell id="G-xqCxAlUEA61fizFQ8X-28" value="&lt;font face=&quot;Georgia&quot;&gt;Return&lt;/font&gt;" style="ellipse;whiteSpace=wrap;html=1;" vertex="1" parent="G-xqCxAlUEA61fizFQ8X-1">
          <mxGeometry x="35" y="230" width="136" height="43" as="geometry" />
        </mxCell>
        <mxCell id="G-xqCxAlUEA61fizFQ8X-27" value="&lt;font face=&quot;Georgia&quot;&gt;Renewal&lt;/font&gt;" style="ellipse;whiteSpace=wrap;html=1;" vertex="1" parent="G-xqCxAlUEA61fizFQ8X-1">
          <mxGeometry x="35" y="171" width="136" height="43" as="geometry" />
        </mxCell>
        <mxCell id="G-xqCxAlUEA61fizFQ8X-26" value="&lt;font face=&quot;Georgia&quot;&gt;Borrow Book&lt;/font&gt;" style="ellipse;whiteSpace=wrap;html=1;" vertex="1" parent="G-xqCxAlUEA61fizFQ8X-1">
          <mxGeometry x="35" y="112" width="136" height="43" as="geometry" />
        </mxCell>
        <mxCell id="G-xqCxAlUEA61fizFQ8X-32" value="&lt;font face=&quot;Georgia&quot;&gt;Fine Payment&lt;/font&gt;" style="ellipse;whiteSpace=wrap;html=1;" vertex="1" parent="G-xqCxAlUEA61fizFQ8X-1">
          <mxGeometry x="35" y="292" width="136" height="43" as="geometry" />
        </mxCell>
        <mxCell id="G-xqCxAlUEA61fizFQ8X-33" value="&lt;font face=&quot;Georgia&quot;&gt;Register&lt;/font&gt;" style="ellipse;whiteSpace=wrap;html=1;" vertex="1" parent="G-xqCxAlUEA61fizFQ8X-1">
          <mxGeometry x="35" y="354" width="136" height="43" as="geometry" />
        </mxCell>
        <mxCell id="G-xqCxAlUEA61fizFQ8X-35" value="&lt;font face=&quot;Georgia&quot;&gt;Form&lt;/font&gt;" style="ellipse;whiteSpace=wrap;html=1;" vertex="1" parent="G-xqCxAlUEA61fizFQ8X-1">
          <mxGeometry x="8" y="441" width="79" height="25" as="geometry" />
        </mxCell>
        <mxCell id="G-xqCxAlUEA61fizFQ8X-34" value="&lt;font face=&quot;Georgia&quot;&gt;Get ID&lt;/font&gt;" style="ellipse;whiteSpace=wrap;html=1;" vertex="1" parent="G-xqCxAlUEA61fizFQ8X-1">
          <mxGeometry x="94" y="461" width="79" height="23" as="geometry" />
        </mxCell>
        <mxCell id="G-xqCxAlUEA61fizFQ8X-36" value="&lt;font face=&quot;Georgia&quot;&gt;Invalid Password/ Username&lt;/font&gt;" style="ellipse;whiteSpace=wrap;html=1;" vertex="1" parent="G-xqCxAlUEA61fizFQ8X-1">
          <mxGeometry x="262" y="55" width="136" height="43" as="geometry" />
        </mxCell>
        <mxCell id="G-xqCxAlUEA61fizFQ8X-38" value="&lt;font face=&quot;Georgia&quot;&gt;Scanning Card&lt;/font&gt;" style="ellipse;whiteSpace=wrap;html=1;" vertex="1" parent="G-xqCxAlUEA61fizFQ8X-1">
          <mxGeometry x="262" y="275" width="136" height="43" as="geometry" />
        </mxCell>
        <mxCell id="G-xqCxAlUEA61fizFQ8X-37" value="&lt;font face=&quot;Georgia&quot;&gt;Invalid&lt;/font&gt;" style="ellipse;whiteSpace=wrap;html=1;" vertex="1" parent="G-xqCxAlUEA61fizFQ8X-1">
          <mxGeometry x="262" y="171" width="136" height="43" as="geometry" />
        </mxCell>
        <mxCell id="G-xqCxAlUEA61fizFQ8X-41" value="&lt;font face=&quot;Georgia&quot;&gt;Book Availability&lt;/font&gt;" style="ellipse;whiteSpace=wrap;html=1;" vertex="1" parent="G-xqCxAlUEA61fizFQ8X-1">
          <mxGeometry x="192" y="469" width="136" height="43" as="geometry" />
        </mxCell>
        <mxCell id="G-xqCxAlUEA61fizFQ8X-40" value="&lt;font face=&quot;Georgia&quot;&gt;Database Updation&lt;/font&gt;" style="ellipse;whiteSpace=wrap;html=1;" vertex="1" parent="G-xqCxAlUEA61fizFQ8X-1">
          <mxGeometry x="194" y="535" width="136" height="43" as="geometry" />
        </mxCell>
        <mxCell id="G-xqCxAlUEA61fizFQ8X-42" value="&lt;font face=&quot;Georgia&quot;&gt;Insert&lt;/font&gt;&lt;span style=&quot;color: rgba(0, 0, 0, 0); font-family: monospace; font-size: 0px; text-align: start; text-wrap: nowrap;&quot;&gt;%3CmxGraphModel%3E%3Croot%3E%3CmxCell%20id%3D%220%22%2F%3E%3CmxCell%20id%3D%221%22%20parent%3D%220%22%2F%3E%3CmxCell%20id%3D%222%22%20value%3D%22%26lt%3Bfont%20face%3D%26quot%3BGeorgia%26quot%3B%26gt%3BForm%26lt%3B%2Ffont%26gt%3B%22%20style%3D%22ellipse%3BwhiteSpace%3Dwrap%3Bhtml%3D1%3B%22%20vertex%3D%221%22%20parent%3D%221%22%3E%3CmxGeometry%20x%3D%22217%22%20y%3D%22489%22%20width%3D%2279%22%20height%3D%2225%22%20as%3D%22geometry%22%2F%3E%3C%2FmxCell%3E%3C%2Froot%3E%3C%2FmxGraphModel%3E&lt;/span&gt;" style="ellipse;whiteSpace=wrap;html=1;" vertex="1" parent="G-xqCxAlUEA61fizFQ8X-1">
          <mxGeometry x="66" y="522" width="79" height="25" as="geometry" />
        </mxCell>
        <mxCell id="G-xqCxAlUEA61fizFQ8X-43" value="&lt;font face=&quot;Georgia&quot;&gt;Delete&lt;/font&gt;" style="ellipse;whiteSpace=wrap;html=1;" vertex="1" parent="G-xqCxAlUEA61fizFQ8X-1">
          <mxGeometry x="66" y="584" width="79" height="25" as="geometry" />
        </mxCell>
        <mxCell id="G-xqCxAlUEA61fizFQ8X-52" value="extend" style="html=1;verticalAlign=bottom;endArrow=open;dashed=1;endSize=8;curved=0;rounded=0;exitX=0.008;exitY=0.367;exitDx=0;exitDy=0;exitPerimeter=0;" edge="1" parent="G-xqCxAlUEA61fizFQ8X-1" source="G-xqCxAlUEA61fizFQ8X-36">
          <mxGeometry relative="1" as="geometry">
            <mxPoint x="251" y="71.25999999999999" as="sourcePoint" />
            <mxPoint x="171" y="71.25999999999999" as="targetPoint" />
          </mxGeometry>
        </mxCell>
        <mxCell id="G-xqCxAlUEA61fizFQ8X-53" value="extend" style="html=1;verticalAlign=bottom;endArrow=open;dashed=1;endSize=8;curved=0;rounded=0;exitX=0.254;exitY=0.034;exitDx=0;exitDy=0;exitPerimeter=0;entryX=0.949;entryY=0.682;entryDx=0;entryDy=0;entryPerimeter=0;" edge="1" parent="G-xqCxAlUEA61fizFQ8X-1" source="G-xqCxAlUEA61fizFQ8X-38" target="G-xqCxAlUEA61fizFQ8X-16">
          <mxGeometry relative="1" as="geometry">
            <mxPoint x="276" y="283" as="sourcePoint" />
            <mxPoint x="184" y="283.26" as="targetPoint" />
          </mxGeometry>
        </mxCell>
        <mxCell id="G-xqCxAlUEA61fizFQ8X-54" value="include" style="endArrow=open;endSize=12;dashed=1;html=1;rounded=0;entryX=0;entryY=0;entryDx=0;entryDy=0;" edge="1" parent="G-xqCxAlUEA61fizFQ8X-1" target="G-xqCxAlUEA61fizFQ8X-38">
          <mxGeometry width="160" relative="1" as="geometry">
            <mxPoint x="171" y="133.26" as="sourcePoint" />
            <mxPoint x="271" y="284" as="targetPoint" />
          </mxGeometry>
        </mxCell>
        <mxCell id="G-xqCxAlUEA61fizFQ8X-56" value="include" style="endArrow=open;endSize=12;dashed=1;html=1;rounded=0;entryX=0.029;entryY=0.326;entryDx=0;entryDy=0;entryPerimeter=0;" edge="1" parent="G-xqCxAlUEA61fizFQ8X-1" target="G-xqCxAlUEA61fizFQ8X-38">
          <mxGeometry width="160" relative="1" as="geometry">
            <mxPoint x="169.5" y="196" as="sourcePoint" />
            <mxPoint x="268.5" y="350.74" as="targetPoint" />
          </mxGeometry>
        </mxCell>
        <mxCell id="G-xqCxAlUEA61fizFQ8X-55" value="include" style="endArrow=open;endSize=12;dashed=1;html=1;rounded=0;" edge="1" parent="G-xqCxAlUEA61fizFQ8X-1" source="G-xqCxAlUEA61fizFQ8X-28">
          <mxGeometry width="160" relative="1" as="geometry">
            <mxPoint x="171" y="252" as="sourcePoint" />
            <mxPoint x="262" y="298" as="targetPoint" />
          </mxGeometry>
        </mxCell>
        <mxCell id="G-xqCxAlUEA61fizFQ8X-57" value="include" style="endArrow=open;endSize=12;dashed=1;html=1;rounded=0;entryX=0.092;entryY=0.776;entryDx=0;entryDy=0;entryPerimeter=0;" edge="1" parent="G-xqCxAlUEA61fizFQ8X-1" target="G-xqCxAlUEA61fizFQ8X-38">
          <mxGeometry width="160" relative="1" as="geometry">
            <mxPoint x="171" y="314.26" as="sourcePoint" />
            <mxPoint x="270" y="469" as="targetPoint" />
          </mxGeometry>
        </mxCell>
        <mxCell id="G-xqCxAlUEA61fizFQ8X-61" value="extend" style="html=1;verticalAlign=bottom;endArrow=open;dashed=1;endSize=8;curved=0;rounded=0;entryX=0.046;entryY=0.322;entryDx=0;entryDy=0;entryPerimeter=0;exitX=0.969;exitY=0.749;exitDx=0;exitDy=0;exitPerimeter=0;" edge="1" parent="G-xqCxAlUEA61fizFQ8X-1" source="G-xqCxAlUEA61fizFQ8X-42" target="G-xqCxAlUEA61fizFQ8X-40">
          <mxGeometry relative="1" as="geometry">
            <mxPoint x="160" y="536.523321799308" as="sourcePoint" />
            <mxPoint x="234.5" y="449" as="targetPoint" />
          </mxGeometry>
        </mxCell>
        <mxCell id="G-xqCxAlUEA61fizFQ8X-62" value="extend" style="html=1;verticalAlign=bottom;endArrow=open;dashed=1;endSize=8;curved=0;rounded=0;exitX=0.998;exitY=0.37;exitDx=0;exitDy=0;exitPerimeter=0;" edge="1" parent="G-xqCxAlUEA61fizFQ8X-1" source="G-xqCxAlUEA61fizFQ8X-43" target="G-xqCxAlUEA61fizFQ8X-40">
          <mxGeometry relative="1" as="geometry">
            <mxPoint x="170" y="546.523321799308" as="sourcePoint" />
            <mxPoint x="210" y="559" as="targetPoint" />
          </mxGeometry>
        </mxCell>
        <mxCell id="G-xqCxAlUEA61fizFQ8X-64" value="extend" style="html=1;verticalAlign=bottom;endArrow=open;dashed=1;endSize=8;curved=0;rounded=0;entryX=0.397;entryY=1.047;entryDx=0;entryDy=0;entryPerimeter=0;exitX=1;exitY=0;exitDx=0;exitDy=0;" edge="1" parent="G-xqCxAlUEA61fizFQ8X-1" source="G-xqCxAlUEA61fizFQ8X-35" target="G-xqCxAlUEA61fizFQ8X-33">
          <mxGeometry relative="1" as="geometry">
            <mxPoint x="73" y="395.00332179930797" as="sourcePoint" />
            <mxPoint x="113" y="407.48" as="targetPoint" />
          </mxGeometry>
        </mxCell>
        <mxCell id="G-xqCxAlUEA61fizFQ8X-63" value="extend" style="html=1;verticalAlign=bottom;endArrow=open;dashed=1;endSize=8;curved=0;rounded=0;entryX=0.566;entryY=0.953;entryDx=0;entryDy=0;entryPerimeter=0;exitX=0.5;exitY=0;exitDx=0;exitDy=0;" edge="1" parent="G-xqCxAlUEA61fizFQ8X-1" source="G-xqCxAlUEA61fizFQ8X-34" target="G-xqCxAlUEA61fizFQ8X-33">
          <mxGeometry relative="1" as="geometry">
            <mxPoint x="126" y="395.00332179930797" as="sourcePoint" />
            <mxPoint x="166" y="407.48" as="targetPoint" />
          </mxGeometry>
        </mxCell>
        <mxCell id="G-xqCxAlUEA61fizFQ8X-65" value="extend" style="html=1;verticalAlign=bottom;endArrow=open;dashed=1;endSize=8;curved=0;rounded=0;entryX=1;entryY=0.5;entryDx=0;entryDy=0;exitX=0;exitY=0.5;exitDx=0;exitDy=0;" edge="1" parent="G-xqCxAlUEA61fizFQ8X-1" source="G-xqCxAlUEA61fizFQ8X-37" target="G-xqCxAlUEA61fizFQ8X-27">
          <mxGeometry relative="1" as="geometry">
            <mxPoint x="217" y="186.26332179930796" as="sourcePoint" />
            <mxPoint x="257" y="198.74" as="targetPoint" />
          </mxGeometry>
        </mxCell>
        <mxCell id="G-xqCxAlUEA61fizFQ8X-78" value="&lt;font face=&quot;Georgia&quot;&gt;Update&lt;/font&gt;" style="ellipse;whiteSpace=wrap;html=1;" vertex="1" parent="G-xqCxAlUEA61fizFQ8X-1">
          <mxGeometry x="147" y="623" width="79" height="25" as="geometry" />
        </mxCell>
        <mxCell id="G-xqCxAlUEA61fizFQ8X-79" value="extend" style="html=1;verticalAlign=bottom;endArrow=open;dashed=1;endSize=8;curved=0;rounded=0;exitX=0.5;exitY=0;exitDx=0;exitDy=0;entryX=0.447;entryY=0.99;entryDx=0;entryDy=0;entryPerimeter=0;" edge="1" parent="G-xqCxAlUEA61fizFQ8X-1" source="G-xqCxAlUEA61fizFQ8X-78" target="G-xqCxAlUEA61fizFQ8X-40">
          <mxGeometry relative="1" as="geometry">
            <mxPoint x="155" y="603" as="sourcePoint" />
            <mxPoint x="224" y="582" as="targetPoint" />
          </mxGeometry>
        </mxCell>
        <mxCell id="G-xqCxAlUEA61fizFQ8X-80" value="&lt;font face=&quot;Georgia&quot;&gt;Payment Method&lt;/font&gt;" style="ellipse;whiteSpace=wrap;html=1;" vertex="1" parent="G-xqCxAlUEA61fizFQ8X-1">
          <mxGeometry x="262" y="360" width="136" height="43" as="geometry" />
        </mxCell>
        <mxCell id="G-xqCxAlUEA61fizFQ8X-81" value="include" style="endArrow=open;endSize=12;dashed=1;html=1;rounded=0;entryX=0.015;entryY=0.256;entryDx=0;entryDy=0;entryPerimeter=0;exitX=1;exitY=1;exitDx=0;exitDy=0;" edge="1" parent="G-xqCxAlUEA61fizFQ8X-1" source="G-xqCxAlUEA61fizFQ8X-32" target="G-xqCxAlUEA61fizFQ8X-80">
          <mxGeometry width="160" relative="1" as="geometry">
            <mxPoint x="181" y="324.26" as="sourcePoint" />
            <mxPoint x="285" y="318" as="targetPoint" />
          </mxGeometry>
        </mxCell>
        <mxCell id="G-xqCxAlUEA61fizFQ8X-2" value="" style="shape=umlActor;verticalLabelPosition=bottom;verticalAlign=top;html=1;outlineConnect=0;" vertex="1" parent="1">
          <mxGeometry x="69" y="201" width="30" height="60" as="geometry" />
        </mxCell>
        <mxCell id="G-xqCxAlUEA61fizFQ8X-3" value="" style="shape=umlActor;verticalLabelPosition=bottom;verticalAlign=top;html=1;outlineConnect=0;" vertex="1" parent="1">
          <mxGeometry x="32" y="379" width="30" height="60" as="geometry" />
        </mxCell>
        <mxCell id="G-xqCxAlUEA61fizFQ8X-4" value="" style="shape=umlActor;verticalLabelPosition=bottom;verticalAlign=top;html=1;outlineConnect=0;" vertex="1" parent="1">
          <mxGeometry x="109" y="379" width="30" height="60" as="geometry" />
        </mxCell>
        <mxCell id="G-xqCxAlUEA61fizFQ8X-9" value="" style="shape=partialRectangle;whiteSpace=wrap;html=1;bottom=1;right=1;left=1;top=0;fillColor=none;routingCenterX=-0.5;rotation=-180;" vertex="1" parent="1">
          <mxGeometry x="48" y="353" width="76" height="19" as="geometry" />
        </mxCell>
        <mxCell id="G-xqCxAlUEA61fizFQ8X-44" value="&lt;span style=&quot;color: rgba(0, 0, 0, 0); font-family: monospace; font-size: 0px; text-align: start;&quot;&gt;%3CmxGraphModel%3E%3Croot%3E%3CmxCell%20id%3D%220%22%2F%3E%3CmxCell%20id%3D%221%22%20parent%3D%220%22%2F%3E%3CmxCell%20id%3D%222%22%20value%3D%22%26lt%3Bspan%20style%3D%26quot%3Bfont-family%3A%20Georgia%3B%20font-size%3A%2010px%3B%26quot%3B%26gt%3BUser%26lt%3B%2Fspan%26gt%3B%22%20style%3D%22text%3Bhtml%3D1%3Balign%3Dcenter%3BverticalAlign%3Dmiddle%3BwhiteSpace%3Dwrap%3Brounded%3D0%3B%22%20vertex%3D%221%22%20parent%3D%221%22%3E%3CmxGeometry%20x%3D%2254%22%20y%3D%22258%22%20width%3D%2260%22%20height%3D%2230%22%20as%3D%22geometry%22%2F%3E%3C%2FmxCell%3E%3C%2Froot%3E%3C%2FmxGraphModel%3E&lt;/span&gt;" style="shape=umlActor;verticalLabelPosition=bottom;verticalAlign=top;html=1;outlineConnect=0;" vertex="1" parent="1">
          <mxGeometry x="697" y="555" width="30" height="60" as="geometry" />
        </mxCell>
        <mxCell id="G-xqCxAlUEA61fizFQ8X-46" value="" style="endArrow=none;html=1;rounded=0;entryX=0;entryY=0.5;entryDx=0;entryDy=0;" edge="1" parent="1" target="G-xqCxAlUEA61fizFQ8X-16">
          <mxGeometry width="50" height="50" relative="1" as="geometry">
            <mxPoint x="131" y="247" as="sourcePoint" />
            <mxPoint x="180" y="197" as="targetPoint" />
          </mxGeometry>
        </mxCell>
        <mxCell id="G-xqCxAlUEA61fizFQ8X-47" value="" style="endArrow=none;html=1;rounded=0;entryX=0.05;entryY=0.735;entryDx=0;entryDy=0;entryPerimeter=0;" edge="1" parent="1" target="G-xqCxAlUEA61fizFQ8X-26">
          <mxGeometry width="50" height="50" relative="1" as="geometry">
            <mxPoint x="131" y="247" as="sourcePoint" />
            <mxPoint x="256" y="155" as="targetPoint" />
          </mxGeometry>
        </mxCell>
        <mxCell id="G-xqCxAlUEA61fizFQ8X-48" value="" style="endArrow=none;html=1;rounded=0;" edge="1" parent="1" target="G-xqCxAlUEA61fizFQ8X-27">
          <mxGeometry width="50" height="50" relative="1" as="geometry">
            <mxPoint x="131" y="247" as="sourcePoint" />
            <mxPoint x="246" y="145" as="targetPoint" />
          </mxGeometry>
        </mxCell>
        <mxCell id="G-xqCxAlUEA61fizFQ8X-49" value="" style="endArrow=none;html=1;rounded=0;entryX=0;entryY=0.5;entryDx=0;entryDy=0;" edge="1" parent="1" target="G-xqCxAlUEA61fizFQ8X-28">
          <mxGeometry width="50" height="50" relative="1" as="geometry">
            <mxPoint x="131" y="247" as="sourcePoint" />
            <mxPoint x="276" y="175" as="targetPoint" />
          </mxGeometry>
        </mxCell>
        <mxCell id="G-xqCxAlUEA61fizFQ8X-50" value="" style="endArrow=none;html=1;rounded=0;entryX=0;entryY=0;entryDx=0;entryDy=0;" edge="1" parent="1" target="G-xqCxAlUEA61fizFQ8X-32">
          <mxGeometry width="50" height="50" relative="1" as="geometry">
            <mxPoint x="131" y="247" as="sourcePoint" />
            <mxPoint x="286" y="185" as="targetPoint" />
          </mxGeometry>
        </mxCell>
        <mxCell id="G-xqCxAlUEA61fizFQ8X-51" value="" style="endArrow=none;html=1;rounded=0;entryX=0.039;entryY=0.279;entryDx=0;entryDy=0;entryPerimeter=0;" edge="1" parent="1" target="G-xqCxAlUEA61fizFQ8X-33">
          <mxGeometry width="50" height="50" relative="1" as="geometry">
            <mxPoint x="131" y="247" as="sourcePoint" />
            <mxPoint x="296" y="195" as="targetPoint" />
          </mxGeometry>
        </mxCell>
        <mxCell id="G-xqCxAlUEA61fizFQ8X-58" value="" style="endArrow=none;html=1;rounded=0;entryX=0.039;entryY=0.279;entryDx=0;entryDy=0;entryPerimeter=0;exitX=0.988;exitY=0.389;exitDx=0;exitDy=0;exitPerimeter=0;" edge="1" parent="1" source="G-xqCxAlUEA61fizFQ8X-40">
          <mxGeometry width="50" height="50" relative="1" as="geometry">
            <mxPoint x="568" y="398" as="sourcePoint" />
            <mxPoint x="688" y="590" as="targetPoint" />
          </mxGeometry>
        </mxCell>
        <mxCell id="G-xqCxAlUEA61fizFQ8X-59" value="" style="endArrow=none;html=1;rounded=0;entryX=0.039;entryY=0.279;entryDx=0;entryDy=0;entryPerimeter=0;exitX=1;exitY=0.5;exitDx=0;exitDy=0;" edge="1" parent="1" source="G-xqCxAlUEA61fizFQ8X-41">
          <mxGeometry width="50" height="50" relative="1" as="geometry">
            <mxPoint x="569" y="398" as="sourcePoint" />
            <mxPoint x="689" y="590" as="targetPoint" />
          </mxGeometry>
        </mxCell>
        <mxCell id="G-xqCxAlUEA61fizFQ8X-72" value="&lt;span style=&quot;font-family: Georgia; font-size: 10px;&quot;&gt;User&lt;/span&gt;" style="text;html=1;align=center;verticalAlign=middle;whiteSpace=wrap;rounded=0;" vertex="1" parent="1">
          <mxGeometry x="54" y="258" width="60" height="30" as="geometry" />
        </mxCell>
        <mxCell id="G-xqCxAlUEA61fizFQ8X-73" value="&lt;font face=&quot;Georgia&quot;&gt;&lt;span style=&quot;font-size: 10px;&quot;&gt;Staff&lt;/span&gt;&lt;/font&gt;" style="text;html=1;align=center;verticalAlign=middle;whiteSpace=wrap;rounded=0;" vertex="1" parent="1">
          <mxGeometry x="96" y="439" width="60" height="30" as="geometry" />
        </mxCell>
        <mxCell id="G-xqCxAlUEA61fizFQ8X-74" value="&lt;font face=&quot;Georgia&quot;&gt;&lt;span style=&quot;font-size: 10px;&quot;&gt;Student&lt;/span&gt;&lt;/font&gt;" style="text;html=1;align=center;verticalAlign=middle;whiteSpace=wrap;rounded=0;" vertex="1" parent="1">
          <mxGeometry x="14" y="439" width="60" height="30" as="geometry" />
        </mxCell>
        <mxCell id="G-xqCxAlUEA61fizFQ8X-76" value="&lt;font face=&quot;Georgia&quot;&gt;&lt;span style=&quot;font-size: 10px;&quot;&gt;Librarian&lt;/span&gt;&lt;/font&gt;" style="text;html=1;align=center;verticalAlign=middle;whiteSpace=wrap;rounded=0;" vertex="1" parent="1">
          <mxGeometry x="680" y="615" width="60" height="30" as="geometry" />
        </mxCell>
        <mxCell id="G-xqCxAlUEA61fizFQ8X-77" value="&lt;font style=&quot;font-size: 18px;&quot; face=&quot;Georgia&quot;&gt;Library Management System&lt;/font&gt;" style="text;html=1;align=center;verticalAlign=middle;whiteSpace=wrap;rounded=0;" vertex="1" parent="1">
          <mxGeometry x="232.5" y="760" width="371" height="30" as="geometry" />
        </mxCell>
        <mxCell id="G-xqCxAlUEA61fizFQ8X-11" value="" style="endArrow=block;endSize=16;endFill=0;html=1;rounded=0;" edge="1" parent="1">
          <mxGeometry width="160" relative="1" as="geometry">
            <mxPoint x="86" y="354" as="sourcePoint" />
            <mxPoint x="86" y="299" as="targetPoint" />
          </mxGeometry>
        </mxCell>
      </root>
    </mxGraphModel>
  </diagram>
</mxfile>
